<svg width="21px" height="26px" viewBox="0 0 21 26" version="1.1" xmlns="http://www.w3.org/2000/svg" xmlns:xlink="http://www.w3.org/1999/xlink">
    <defs></defs>
    <g id="Symbols" stroke="none" stroke-width="1" fill="none" fill-rule="evenodd">
        <g id="Navigation" transform="translate(-206.000000, -64.000000)" fill="#FFFFFF" fill-rule="nonzero">
            <path d="M226.248102,82.7342505 C225.580422,81.7249586 224.666703,80.3428951 224.666703,76.4090997 L224.666703,74.6363712 C224.666703,70.8963572 222.202156,67.7321475 218.833352,66.7121085 L218.833352,66.3636565 C218.833352,65.0600363 217.786359,64 216.500055,64 C215.21375,64 214.166703,65.0600363 214.166703,66.3636565 L214.166703,66.7121085 C210.798008,67.7321475 208.333352,70.8963572 208.333352,74.6363712 L208.333352,76.4090997 C208.333352,80.3428951 207.419633,81.7249586 206.751953,82.7342505 C206.365695,83.3188078 206,83.8710681 206,84.6818144 C206,86.6082717 209.96457,87.2842907 213.178883,87.5171275 C213.629563,88.9786868 214.952508,90 216.5,90 C218.047492,90 219.370438,88.9786868 219.821117,87.5171275 C223.03543,87.2842907 227,86.6082717 227,84.6818144 C227.000055,83.8710681 226.634305,83.3188078 226.248102,82.7342505 Z M215.333352,66.3636565 C215.333352,65.7121788 215.856328,65.181856 216.5,65.181856 C217.143672,65.181856 217.666703,65.7121234 217.666703,66.3636565 L217.666703,66.4580543 C217.284602,66.4023241 216.897141,66.3636565 216.500055,66.3636565 C216.102969,66.3636565 215.715508,66.4023241 215.333406,66.4580543 L215.333406,66.3636565 L215.333352,66.3636565 Z M216.500055,88.8181994 C215.628117,88.8181994 214.862328,88.3307545 214.464531,87.5913051 C215.291133,87.6266489 216.008906,87.6363989 216.500055,87.6363989 C216.991313,87.6363989 217.709031,87.6266489 218.535688,87.5913051 C218.137836,88.3307545 217.371992,88.8181994 216.500055,88.8181994 Z M216.500055,86.4545429 C211.157742,86.4545429 207.166703,85.5185423 207.166703,84.6818144 C207.166703,84.249601 207.346734,83.9581534 207.721563,83.392099 C208.429055,82.321094 209.500055,80.7024266 209.500055,76.4090997 L209.500055,74.6363712 C209.500055,70.7262306 212.640047,67.5454571 216.500055,67.5454571 C220.360063,67.5454571 223.500055,70.7262306 223.500055,74.6363712 L223.500055,76.4090997 C223.500055,80.7024266 224.571,82.321094 225.278547,83.392099 C225.653375,83.9582088 225.833406,84.249601 225.833406,84.6818144 C225.833352,85.5185977 221.842313,86.4545429 216.500055,86.4545429 Z" id="Shape"></path>
        </g>
    </g>
</svg>
