<svg width="23px" height="26px" viewBox="0 0 23 26" version="1.1" xmlns="http://www.w3.org/2000/svg" xmlns:xlink="http://www.w3.org/1999/xlink">
    <defs></defs>
    <g id="Symbols" stroke="none" stroke-width="1" fill="none" fill-rule="evenodd">
        <g id="Navigation" transform="translate(-323.000000, -65.000000)" fill="#FFFFFF" fill-rule="nonzero">
            <path d="M344.997832,65.9840957 L324.860944,65.9840957 L324.860944,68.1704151 C324.860944,68.5965927 325.09059,68.9939744 325.459896,69.2063433 L331.584758,72.7309465 C332.258579,73.1189696 332.677558,73.8431834 332.677558,74.6206694 L332.677558,74.8481561 C332.677558,75.5522128 332.332009,76.2181152 331.753214,76.6291749 C330.300467,77.6622234 329.432994,79.3410173 329.432994,81.1198765 L329.432994,84.7826994 C329.432994,87.5809292 331.769051,88.5995798 333.160607,88.9580872 C333.7538,89.1107049 334.354912,89.1877336 334.945945,89.1877336 C335.536259,89.1877336 336.134491,89.1107049 336.725524,88.9588071 C338.11708,88.6017395 340.450978,87.5845286 340.450978,84.7841392 L340.450978,81.1198765 C340.450978,79.3410173 339.583505,77.6622234 338.130758,76.6291749 C337.552683,76.2181152 337.207134,75.5522128 337.207134,74.8481561 L337.207134,74.6091511 C337.207134,73.8410237 337.618194,73.1211293 338.280496,72.7309465 L344.426955,69.1113172 C344.793382,68.894629 345.018709,68.4965273 345.015109,68.0703498 L344.997832,65.9840957 Z M344.925842,69.958633 L338.780103,73.5789821 C338.417276,73.7927908 338.19123,74.1880128 338.19123,74.6091511 L338.19123,74.8481561 C338.19123,75.2340195 338.382002,75.5997259 338.701635,75.8272125 C340.413544,77.044554 341.435794,79.0235439 341.435794,81.1198765 L341.435794,84.7841392 C341.435794,87.3145682 339.808113,89.1841341 336.970289,89.9126673 C336.299347,90.084722 335.618327,90.1718293 334.945945,90.1718293 C334.272124,90.1718293 333.588944,90.0840022 332.915843,89.9112275 C330.077299,89.1805346 328.448898,87.3116886 328.448898,84.7826994 L328.448898,81.1198765 C328.448898,79.0235439 329.471148,77.044554 331.183057,75.8272125 C331.50269,75.5997259 331.693462,75.2340195 331.693462,74.8481561 L331.693462,74.6206694 C331.693462,74.1944919 331.463816,73.7971102 331.09379,73.5840214 L324.968928,70.0594182 C324.295107,69.672115 323.876128,68.9479012 323.876128,68.1704151 L323.876128,65.9135461 C323.876128,65.4096199 324.286468,65 324.790394,65 L345.067661,65 C345.567268,65 345.976888,65.4060205 345.981207,65.9063471 L345.999925,68.062431 C346.006404,68.8384772 345.594624,69.5648507 344.925842,69.958633 Z" id="path746" transform="translate(334.938064, 77.585915) rotate(-180.000000) translate(-334.938064, -77.585915) "></path>
        </g>
    </g>
</svg>
