<?xml version="1.0" encoding="iso-8859-1"?>
<!-- Generator: Adobe Illustrator 19.0.0, SVG Export Plug-In . SVG Version: 6.00 Build 0)  -->
<svg xmlns="http://www.w3.org/2000/svg" xmlns:xlink="http://www.w3.org/1999/xlink" version="1.1" id="Capa_1" x="0px" y="0px" viewBox="0 0 400.8 400.8" style="enable-background:new 0 0 400.8 400.8;" xml:space="preserve" width="512px" height="512px">
<g>
	<g id="broken-heart" transform="translate(0.000000, 00.000000)" fill="#F11A61" fill-rule="nonzero">
        <path d="M74.0162866,1.45281836 C65.1302932,-1.79509258 56.0423453,0.843835058 49.5798046,8.55762354 C49.0749186,9.16660684 48.4690554,10.2830762 48.3680782,10.3845734 C47.8631922,11.1965512 47.9641694,12.2115233 48.6710098,12.9220039 L54.7296417,19.0118369 L33.019544,31.3944973 C32.1107492,31.9019834 31.504886,32.8154584 31.4039088,33.8304305 C31.3029316,34.9468999 31.9087948,36.0633693 33.019544,36.6723526 L53.5179153,48.0400409 L51.0944625,55.0433489 C50.6905537,56.058321 51.2964169,57.2762876 52.3061889,57.5807793 C53.3159609,57.9867681 54.5276873,57.3777848 54.8306189,56.3628127 L57.5570033,48.6490242 C57.8599349,47.9385437 57.8599349,47.1265659 57.5570033,46.3145882 C57.2540717,45.6041077 56.7491857,45.0966216 56.0423453,44.79213 L36.5537459,34.033425 L57.7589577,21.7522617 C58.5667752,21.3462729 59.1726384,20.5342951 59.2736156,19.6208202 C59.47557,18.605848 59.0716612,17.6923731 58.3648208,16.9818925 L52.6091205,11.1965512 C52.6091205,11.1965512 52.6091205,11.1965512 52.6091205,11.095054 C57.9609121,4.7007293 65.2312704,2.56928774 72.6026059,5.3097126 C80.6807818,8.25313189 88.8599349,17.4893786 88.8599349,31.2930001 C88.8599349,50.3744769 73.1074919,62.5541429 56.5472313,75.4442894 C54.2247557,77.2712394 51.9022801,78.996692 49.6807818,80.8236419 C47.762215,82.244603 45.1368078,82.244603 43.3192182,80.8236419 C41.0977199,79.0981893 38.8762215,77.2712394 36.5537459,75.5457867 C20.5993485,63.1631262 4.03908795,50.2729797 4.03908795,31.2930001 C4.03908795,20.2298035 9.69381107,10.2830762 18.3778502,6.02019312 C24.8403909,2.87377939 31.6058632,3.58425991 37.0586319,7.84714302 C37.9674267,8.55762354 39.1791531,8.35462911 39.8859935,7.54265137 C40.5928339,6.62917642 40.3908795,5.41120982 39.5830619,4.7007293 C32.9185668,-0.577125978 24.5374593,-1.49060093 16.6612378,2.36629331 C6.56351792,7.33965694 0,18.605848 0,31.2930001 C0,52.302924 17.267101,65.8020538 34.029316,78.7936976 C36.2508143,80.5191503 38.5732899,82.244603 40.7947883,84.0715529 C42.5114007,85.3910167 44.4299674,86 46.4495114,86 C48.4690554,86 50.4885993,85.3910167 52.2052117,84.0715529 C54.4267101,82.244603 56.7491857,80.5191503 59.0716612,78.6922004 C75.732899,65.7005566 93,52.302924 93,31.2930001 C92.8990228,17.5908758 85.3257329,5.61420425 74.0162866,1.45281836 Z" id="Shape"></path>
    </g>
</g>
<g>
</g>
<g>
</g>
<g>
</g>
<g>
</g>
<g>
</g>
<g>
</g>
<g>
</g>
<g>
</g>
<g>
</g>
<g>
</g>
<g>
</g>
<g>
</g>
<g>
</g>
<g>
</g>
<g>
</g>
</svg>
