<svg width="47px" height="47px" viewBox="0 0 47 47" version="1.1" xmlns="http://www.w3.org/2000/svg" xmlns:xlink="http://www.w3.org/1999/xlink">
    <defs></defs>
    <g id="Phone-Screen" stroke="none" stroke-width="1" fill="none" fill-rule="evenodd">
        <g id="Match-Making" transform="translate(-22.000000, -50.000000)" fill-rule="nonzero">
            <g id="Go-Back" transform="translate(22.000000, 50.000000)">
                <circle id="Oval" fill="#191919" cx="23.5" cy="23.5" r="23.5"></circle>
                <path d="M19.1765135,16.2255996 C19.4866605,15.9248001 19.9749323,15.9248001 20.2850793,16.2255996 C20.5847483,16.5162368 20.5847483,16.9999548 20.2850793,17.2899146 L14.6640154,22.7415654 L33.2127577,22.7415654 C33.6451472,22.7415654 34,23.0748837 34,23.4942415 C34,23.9135992 33.6451472,24.2577571 33.2127577,24.2577571 L14.6640154,24.2577571 L20.2850793,29.6992457 C20.5847483,30.0000452 20.5847483,30.4844406 20.2850793,30.7744004 C19.9749323,31.0751999 19.4866605,31.0751999 19.1765135,30.7744004 L12.2247517,24.0321575 C11.9250828,23.7415203 11.9250828,23.2578023 12.2247517,22.9678425 L19.1765135,16.2255996 Z" id="Shape" fill="#FFFFFF"></path>
            </g>
        </g>
    </g>
</svg>
