<svg width="65px" height="65px" viewBox="0 0 65 65" version="1.1" xmlns="http://www.w3.org/2000/svg" xmlns:xlink="http://www.w3.org/1999/xlink">
    <g id="Phone-Screen" stroke="none" stroke-width="1" fill="none" fill-rule="evenodd">
        <g id="Video-Call" transform="translate(-258.000000, -684.000000)" fill-rule="nonzero">
            <g id="End-Call" transform="translate(258.000000, 684.000000)">
                <circle id="Oval-6" fill="#FF0000" cx="32.5" cy="32.5" r="32.5"></circle>
                <path d="M43.8110172,42.5800875 C43.0277388,43.6264596 41.931083,44 40.756744,44 C38.3325313,44 35.5757683,42.4081507 34.5533247,41.8520196 C26.1271734,36.5082117 22.550935,30.2422719 21.0820608,27.47309 C18.4368641,21.7404984 21.4736173,20.2835432 21.4736173,20.2835432 C21.4736173,20.2835432 23.5598253,19.1917693 23.9723728,19.020816 C24.0064212,19.0065562 24.0426183,19 24.0793112,19 C24.4897101,19 25.0496905,19.7978915 25.0496905,19.7978915 L27.8904175,24.2182564 C27.8904175,24.2182564 28.0864437,24.6070401 28.3317243,24.995332 C28.5277505,26.2100349 27.2544067,27.3757302 26.9112782,28.5415894 C26.568315,29.7079402 27.5965435,31.0673717 29.9969553,33.4480977 C32.3973671,35.8281681 34.5035744,37.237099 35.1402463,37.2847955 C35.1504939,37.285615 35.1612373,37.2862706 35.1719808,37.2862706 C35.8402218,37.2862706 37.7475931,35.8268569 38.3735216,35.7311361 C38.4528577,35.7190071 38.5313673,35.71409 38.6067366,35.71409 C39.1363048,35.71409 39.5493482,35.9750274 39.5493482,35.9750274 C39.5493482,35.9750274 44.1536498,38.9374537 44.6933004,39.2780491 C45.2319592,39.6171694 45.1336155,40.4429249 43.8110172,42.5800875 Z" id="Path" fill="#FFFFFF"></path>
            </g>
        </g>
    </g>
</svg>
