<svg width="65px" height="65px" viewBox="0 0 65 65" version="1.1" xmlns="http://www.w3.org/2000/svg" xmlns:xlink="http://www.w3.org/1999/xlink">
    <g id="Page-1" stroke="none" stroke-width="1" fill="none" fill-rule="evenodd">
        <g id="endcall" fill-rule="nonzero">
            <circle id="Oval-6" fill="#FF0000" cx="32.5" cy="32.5" r="32.5"></circle>
            <path d="M43.9886867,43.757757 C43.2054083,44.8041291 42.1087525,45.1776695 40.9344135,45.1776695 C38.5102008,45.1776695 35.7534378,43.5858202 34.7309942,43.0296891 C26.3048429,37.6858812 22.7286045,31.4199414 21.2597303,28.6507595 C18.6145336,22.9181679 21.6512868,21.4612127 21.6512868,21.4612127 C21.6512868,21.4612127 23.7374948,20.3694388 24.1500423,20.1984855 C24.1840907,20.1842257 24.2202878,20.1776695 24.2569807,20.1776695 C24.6673796,20.1776695 25.22736,20.975561 25.22736,20.975561 L28.068087,25.3959259 C28.068087,25.3959259 28.2641132,25.7847096 28.5093938,26.1730015 C28.70542,27.3877044 27.4320762,28.5533997 27.0889477,29.7192589 C26.7459845,30.8856097 27.774213,32.2450412 30.1746248,34.6257672 C32.5750366,37.0058376 34.6812439,38.4147685 35.3179158,38.462465 C36.0178913,38.4639401 37.9252626,37.0045264 38.5511911,36.9088056 C38.6305272,36.8966766 38.7090368,36.8917595 38.7844061,36.8917595 C39.3139743,36.8917595 39.7270177,37.1526969 39.7270177,37.1526969 C39.7270177,37.1526969 44.3313193,40.1151232 44.8709699,40.4557186 C45.4096287,40.7948389 45.311285,41.6205944 43.9886867,43.757757 Z" id="Path" fill="#FFFFFF" transform="translate(32.677670, 32.677670) rotate(-225.000000) translate(-32.677670, -32.677670) "></path>
        </g>
    </g>
</svg>
