<svg width="69px" height="69px" viewBox="0 0 69 69" version="1.1" xmlns="http://www.w3.org/2000/svg" xmlns:xlink="http://www.w3.org/1999/xlink">
    <g id="Phone-Screen" stroke="none" stroke-width="1" fill="none" fill-rule="evenodd">
        <g id="Match-Making" transform="translate(-217.000000, -681.000000)" fill-rule="nonzero">
            <g id="Controls" transform="translate(89.000000, 681.000000)">
                <g id="Like-Control" transform="translate(128.000000, 0.000000)">
                    <circle id="Oval-3" fill="#222222" cx="34.5" cy="34.5" r="34.5"></circle>
                    <path d="M49.0053333,35.9274667 L34.5584,21.4805333 C34.5285333,21.4506667 34.4794667,21.4506667 34.4496,21.4805333 L20.0026667,35.9274667 C16.6096,39.3205333 16.6096,44.8405333 20.0026667,48.2336 C21.6368,49.8698667 23.8213333,50.7701333 26.1541333,50.7701333 C28.4869333,50.7701333 30.6725333,49.8698667 32.3066667,48.2336 L33.4181333,47.1232 C33.7082667,46.8330667 34.0933333,46.6741333 34.504,46.6741333 C34.9136,46.6741333 35.2986667,46.8330667 35.5888,47.1232 L36.6992,48.2336 C38.3354667,49.8698667 40.5210667,50.7712 42.8528,50.7712 C45.1845333,50.7712 47.3690667,49.8698667 49.0053333,48.2336 C50.6416,46.5962667 51.5418667,44.4117333 51.5418667,42.0810667 C51.5418667,39.7493333 50.6416,37.5637333 49.0053333,35.9274667 M50.0368,49.2650667 C48.1253333,51.1765333 45.5738667,52.2293333 42.8528,52.2293333 C40.1306667,52.2293333 37.5792,51.1765333 35.6677333,49.2650667 L34.5584,48.1546667 C34.5285333,48.1248 34.4794667,48.1248 34.4496,48.1546667 L33.3381333,49.2650667 C31.4288,51.1754667 28.8773333,52.2282667 26.1541333,52.2282667 C23.432,52.2282667 20.8805333,51.1754667 18.9712,49.2650667 C15.0096,45.3034667 15.0096,38.8576 18.9712,34.896 L33.4181333,20.4490667 C33.7082667,20.1589333 34.0933333,20 34.504,20 C34.9136,20 35.2997333,20.1589333 35.5898667,20.4490667 L50.0368,34.896 C51.9482667,36.8074667 53,39.36 53,42.0810667 C53,44.8010667 51.9482667,47.3514667 50.0368,49.2650667" id="path682" fill="#FFFFFF" transform="translate(34.500000, 36.114667) rotate(-180.000000) translate(-34.500000, -36.114667) "></path>
                </g>
            </g>
        </g>
    </g>
</svg>
