<svg width="37px" height="33px" viewBox="0 0 37 33" version="1.1" xmlns="http://www.w3.org/2000/svg" xmlns:xlink="http://www.w3.org/1999/xlink">
    <defs></defs>
    <g id="Symbols" stroke="none" stroke-width="1" fill="none" fill-rule="evenodd">
        <g id="Navigation" transform="translate(-21.000000, -64.000000)" fill="#F81A64" fill-rule="nonzero">
            <path d="M54.0053333,79.9274667 L39.5584,65.4805333 C39.5285333,65.4506667 39.4794667,65.4506667 39.4496,65.4805333 L25.0026667,79.9274667 C21.6096,83.3205333 21.6096,88.8405333 25.0026667,92.2336 C26.6368,93.8698667 28.8213333,94.7701333 31.1541333,94.7701333 C33.4869333,94.7701333 35.6725333,93.8698667 37.3066667,92.2336 L38.4181333,91.1232 C38.7082667,90.8330667 39.0933333,90.6741333 39.504,90.6741333 C39.9136,90.6741333 40.2986667,90.8330667 40.5888,91.1232 L41.6992,92.2336 C43.3354667,93.8698667 45.5210667,94.7712 47.8528,94.7712 C50.1845333,94.7712 52.3690667,93.8698667 54.0053333,92.2336 C55.6416,90.5962667 56.5418667,88.4117333 56.5418667,86.0810667 C56.5418667,83.7493333 55.6416,81.5637333 54.0053333,79.9274667 M55.0368,93.2650667 C53.1253333,95.1765333 50.5738667,96.2293333 47.8528,96.2293333 C45.1306667,96.2293333 42.5792,95.1765333 40.6677333,93.2650667 L39.5584,92.1546667 C39.5285333,92.1248 39.4794667,92.1248 39.4496,92.1546667 L38.3381333,93.2650667 C36.4288,95.1754667 33.8773333,96.2282667 31.1541333,96.2282667 C28.432,96.2282667 25.8805333,95.1754667 23.9712,93.2650667 C20.0096,89.3034667 20.0096,82.8576 23.9712,78.896 L38.4181333,64.4490667 C38.7082667,64.1589333 39.0933333,64 39.504,64 C39.9136,64 40.2997333,64.1589333 40.5898667,64.4490667 L55.0368,78.896 C56.9482667,80.8074667 58,83.36 58,86.0810667 C58,88.8010667 56.9482667,91.3514667 55.0368,93.2650667" id="path682" transform="translate(39.500000, 80.114667) rotate(-180.000000) translate(-39.500000, -80.114667) "></path>
        </g>
    </g>
</svg>
