

<svg width="52px" height="52px" viewBox="0 0 51 51" version="1.1" xmlns="http://www.w3.org/2000/svg" xmlns:xlink="http://www.w3.org/1999/xlink">
    <defs></defs>
    <g id="Symbols" stroke="none" stroke-width="1" fill="none" fill-rule="evenodd">
        <g id="Navigation" transform="translate(-250.000000, -52.000000)" fill-rule="nonzero">
            <circle id="Oval" fill="#191919" cx="275.5" cy="77.5" r="25.5"></circle>
            <path d="M288.635937,74.921584 C288.632806,74.9129754 288.629676,74.9035843 288.627328,74.8949757 L287.088746,69.5827203 L285.804508,71.1369541 C285.649554,71.324777 285.388167,71.3842542 285.167475,71.2817342 C284.121146,70.7980905 282.934732,70.5421819 281.736578,70.5421819 C281.095633,70.5421819 280.492252,70.6204414 279.891219,70.7660041 C282.550477,72.6943184 284.246361,75.5867898 284.246361,78.8181249 C284.246361,80.1485365 283.94741,81.4171232 283.423853,82.5902332 C286.620754,81.9422445 288.930193,79.5240257 288.930193,76.6534669 C288.930193,76.0649554 288.830803,75.4827046 288.635937,74.921584 M266.866489,70.5210518 C266.645797,70.6235718 266.384411,70.5640945 266.229457,70.3762717 L263.982626,67.6559712 L261.533886,76.1064329 C261.531539,76.1158241 261.528408,76.1244326 261.525278,76.1338238 C261.223196,77.0025043 261.069807,77.905619 261.069807,78.8181249 C261.069807,84.0184692 266.02833,88.2491783 272.12318,88.2491783 C278.218031,88.2491783 283.176553,84.0184692 283.176553,78.8181249 C283.176553,73.6177806 278.218031,69.3870715 272.12318,69.3870715 C270.287995,69.3870715 268.470809,69.7791517 266.866489,70.5210518 M287.81969,81.5157302 C286.501017,82.7608389 284.729222,83.55126 282.809516,83.7680388 C280.763813,87.0682423 276.742057,89.3189858 272.12318,89.3189858 C265.438253,89.3189858 260,84.6085459 260,78.8181249 C260,77.7905776 260.171388,76.7739865 260.510252,75.7957427 L263.236031,66.3858194 C263.291595,66.1956488 263.447331,66.0516513 263.641415,66.0109563 C263.678197,66.0031304 263.714196,66 263.750196,66 C263.90828,66 264.060103,66.069651 264.162623,66.1940836 L266.796056,69.382376 C268.444201,68.6850837 270.277039,68.317264 272.12318,68.317264 C274.546877,68.317264 276.802316,68.9433401 278.698544,70.008452 C279.693223,69.6539365 280.689466,69.4723744 281.736578,69.4723744 C282.945688,69.4723744 284.146971,69.7040225 285.235561,70.1454062 L286.907967,68.1208327 C287.011269,67.9964001 287.163093,67.9267491 287.320394,67.9267491 C287.356394,67.9267491 287.393176,67.9306621 287.429175,67.9377054 C287.623259,67.9776178 287.778995,68.1223979 287.834559,68.3125685 L289.650963,74.5835029 C289.882611,75.2534043 290,75.9499139 290,76.6534669 C290,78.4612615 289.225231,80.1884489 287.81969,81.5157302" id="path54" fill="#FFFFFF" transform="translate(275.000000, 77.659493) rotate(-180.000000) translate(-275.000000, -77.659493) "></path>
        </g>
    </g>
</svg>
