<svg width="31px" height="26px" viewBox="0 0 31 26" version="1.1" xmlns="http://www.w3.org/2000/svg" xmlns:xlink="http://www.w3.org/1999/xlink">
    <g id="Phone-Screen" stroke="none" stroke-width="1" fill="none" fill-rule="evenodd">
        <g id="Message-Thread" transform="translate(-298.000000, -756.000000)" fill="#F11A61" fill-rule="nonzero">
            <g id="Send-Message" transform="translate(31.000000, 749.000000)">
                <g id="send" transform="translate(267.000000, 7.000000)">
                    <path d="M30.6276297,0.238574454 C30.3385938,-0.00384552805 29.9406774,-0.0669186003 29.5915696,0.0742188252 L3.42034853,10.7045605 C3.15565634,10.8122418 3.0278217,11.115541 3.13482493,11.3819105 C3.24182815,11.6482799 3.54321755,11.7769246 3.80790974,11.6692434 L28.8092409,1.51734291 L16.4072823,16.2371354 C16.2227669,16.4562763 16.2497145,16.784439 16.4674754,16.9701237 C16.6852364,17.1558084 17.0113328,17.12869 17.1958483,16.9095492 L29.7853502,1.96610629 L28.1027895,10.4653704 L26.4078754,21.862705 C26.3846217,22.0221854 26.2891848,22.1618603 26.149481,22.2407778 C26.0155302,22.3160389 25.8541473,22.3235345 25.713838,22.2610709 L18.6669458,19.4726926 L15.2853532,18.0478506 C15.0222355,17.9367567 14.7193927,18.0612574 14.6089378,18.3260424 C14.5976743,18.3616924 14.590347,18.3985003 14.5872586,18.4357957 L12.8959172,24.959989 L10.486861,16.4914387 L23.0438441,7.0790472 C23.2043187,6.97295037 23.293155,6.78610782 23.274443,6.59378065 C23.2557311,6.40145349 23.1326198,6.23545247 22.9547656,6.16268992 C22.7769113,6.08992736 22.5735628,6.12240847 22.4268345,6.24703111 L9.8052983,15.7035433 L0.707420088,11.9973452 C0.443394016,11.8919797 0.144366323,12.0207462 0.0378475478,12.2857141 C-0.0686712276,12.5506819 0.0572861645,12.8524576 0.319858882,12.9614796 L9.46630335,16.6858988 L11.905335,25.2548175 C12.0323219,25.6974259 12.4355672,26.0015783 12.8933739,25.9999938 C13.154796,25.9954843 13.3939334,25.8986503 13.5769955,25.7280179 C13.5890261,25.7207457 15.2712032,23.9953264 18.6235269,20.5517601 L25.3205845,23.2241693 C25.7509591,23.4081476 26.2418902,23.3804808 26.6491322,23.1492738 C27.0687883,22.9150198 27.3565525,22.4978844 27.427888,22.0202963 L29.1181999,10.6442907 L30.9784937,1.2521313 C31.0558848,0.875033553 30.9210862,0.485625889 30.6276297,0.238574454 Z M13.6055556,22.4 L14.7654438,18.0666667 L16.5818981,18.8058221 L17.05,18.9858056 L13.6055556,22.4 Z" id="Shape"></path>
                </g>
            </g>
        </g>
    </g>
</svg>
